<svg width="24" height="24" viewBox="0 0 24 24" fill="none" xmlns="http://www.w3.org/2000/svg">
<path fill-rule="evenodd" clip-rule="evenodd" d="M3.172 3.17221C2 4.34321 2 6.22921 2 10.0002V14.0002C2 17.7712 2 19.6572 3.172 20.8282C4.344 21.9992 6.229 22.0002 10 22.0002H14C17.771 22.0002 19.657 22.0002 20.828 20.8282C21.999 19.6562 22 17.7712 22 14.0002V10.0002C22 7.16021 22 5.39021 21.5 4.18921V17.0002C21.0246 17.0003 20.5538 16.9067 20.1146 16.7248C19.6753 16.543 19.2762 16.2763 18.94 15.9402L18.188 15.1882C17.466 14.4662 17.106 14.1062 16.697 13.9542C16.2474 13.787 15.7526 13.787 15.303 13.9542C14.894 14.1062 14.533 14.4662 13.813 15.1882L13.699 15.3012C13.114 15.8862 12.821 16.1792 12.51 16.2332C12.2685 16.2758 12.0197 16.2281 11.811 16.0992C11.543 15.9332 11.38 15.5522 11.053 14.7912L11 14.6672C10.25 12.9172 9.876 12.0432 9.222 11.7152C8.89266 11.5501 8.52411 11.4791 8.157 11.5102C7.428 11.5722 6.756 12.2452 5.41 13.5902L3.5 15.5002V2.88721C3.384 2.97321 3.27467 3.06821 3.172 3.17221Z" fill="#F4F4F4"/>
<mask id="mask0_8333_20010" style="mask-type:luminance" maskUnits="userSpaceOnUse" x="2" y="2" width="20" height="20">
<path d="M2 10C2 6.229 2 4.343 3.172 3.172C4.344 2.001 6.229 2 10 2H14C17.771 2 19.657 2 20.828 3.172C21.999 4.344 22 6.229 22 10V14C22 17.771 22 19.657 20.828 20.828C19.656 21.999 17.771 22 14 22H10C6.229 22 4.343 22 3.172 20.828C2.001 19.656 2 17.771 2 14V10Z" fill="white"/>
</mask>
<g mask="url(#mask0_8333_20010)">
<path d="M2 10C2 6.229 2 4.343 3.172 3.172C4.344 2.001 6.229 2 10 2H14C17.771 2 19.657 2 20.828 3.172C21.999 4.344 22 6.229 22 10V14C22 17.771 22 19.657 20.828 20.828C19.656 21.999 17.771 22 14 22H10C6.229 22 4.343 22 3.172 20.828C2.001 19.656 2 17.771 2 14V10Z" stroke="#F4F4F4" stroke-width="4"/>
</g>
<path d="M15 11C16.1046 11 17 10.1046 17 9C17 7.89543 16.1046 7 15 7C13.8954 7 13 7.89543 13 9C13 10.1046 13.8954 11 15 11Z" fill="#F4F4F4"/>
</svg>
