<svg width="24" height="24" viewBox="0 0 24 24" fill="none" xmlns="http://www.w3.org/2000/svg">
<g clip-path="url(#clip0_8337_12785)">
<path d="M14.4464 8.35355C14.6417 8.15829 14.9583 8.15829 15.1536 8.35355L15.6464 8.84645C15.8417 9.04171 15.8417 9.35829 15.6464 9.55355L9.55355 15.6464C9.35829 15.8417 9.04171 15.8417 8.84645 15.6464L8.35355 15.1536C8.15829 14.9583 8.15829 14.6417 8.35355 14.4464L14.4464 8.35355ZM4 4C4 4 8.87581 4 12 4C15.1242 4 20 4 20 4C21.11 4 22 4.89 22 6V9.2C22 9.64183 21.6281 9.98583 21.2211 10.1579C20.986 10.2573 20.7698 10.4018 20.5858 10.5858C20.2107 10.9609 20 11.4696 20 12C20 12.5304 20.2107 13.0391 20.5858 13.4142C20.7698 13.5982 20.986 13.7427 21.2211 13.8421C21.6281 14.0142 22 14.3582 22 14.8V18C22 19.11 21.11 20 20 20H4C3.46957 20 2.96086 19.7893 2.58579 19.4142C2.21071 19.0391 2 18.5304 2 18V14.8C2 14.3582 2.37201 14.0152 2.77939 13.8442C3.49873 13.5422 4 12.833 4 12C4 11.4696 3.78929 10.9609 3.41421 10.5858C3.23019 10.4018 3.014 10.2573 2.77885 10.1579C2.3719 9.98583 2 9.64183 2 9.2V6C2 5.46957 2.21071 4.96086 2.58579 4.58579C2.96086 4.21071 3.46957 4 4 4ZM4.79946 6C4.35764 6 4 6.35817 4 6.8V8.07783C4 8.3638 4.15657 8.623 4.38615 8.79349C4.82262 9.11763 5.18967 9.5285 5.46325 10.0021C5.81415 10.6094 5.9989 11.2985 5.9989 12C5.9989 12.7015 5.81415 13.3906 5.46325 13.9979C5.18967 14.4715 4.82262 14.8824 4.38615 15.2065C4.15657 15.377 4 15.6362 4 15.9222V17.2C4 17.6418 4.35817 18 4.8 18H19.2C19.6418 18 20 17.6418 20 17.2V15.9222C20 15.6362 19.8434 15.377 19.6138 15.2065C19.1774 14.8824 18.8103 14.4715 18.5367 13.9979C18.1858 13.3906 18.0011 12.7015 18.0011 12C18.0011 11.2985 18.1858 10.6094 18.5367 10.0021C18.8103 9.5285 19.1774 9.11763 19.6138 8.79349C19.8434 8.623 20 8.3638 20 8.07783V6.8C20 6.35817 19.6424 6 19.2005 6C17.688 6 14.3489 6 12 6C9.65108 6 6.312 6 4.79946 6ZM9.5 8C10.33 8 11 8.67 11 9.5C11 10.33 10.33 11 9.5 11C8.67 11 8 10.33 8 9.5C8 8.67 8.67 8 9.5 8ZM14.5 13C15.33 13 16 13.67 16 14.5C16 15.33 15.33 16 14.5 16C13.67 16 13 15.33 13 14.5C13 13.67 13.67 13 14.5 13Z" fill="#F4F4F4"/>
</g>
<defs>
<clipPath id="clip0_8337_12785">
<rect width="24" height="24" fill="white"/>
</clipPath>
</defs>
</svg>
