<svg width="114" height="20" viewBox="0 0 114 20" fill="none" xmlns="http://www.w3.org/2000/svg">
<path d="M61.8456 9.45187H61.9209L64.0925 5.91211H65.6866L62.8498 10.4561L65.7117 15H64.0925L61.9209 11.4979H61.8456L59.6615 15H58.0548L60.9544 10.4561L58.0674 5.91211H59.6866L61.8456 9.45187ZM75.264 5.96232C75.2599 7.15061 75.105 8.24057 74.7996 9.23221C74.4942 10.2197 73.967 11.1423 73.218 12C72.4732 12.8536 71.4607 13.6067 70.1803 14.2594L69.5151 13.3556C70.4816 12.8577 71.2808 12.3075 71.9126 11.705C72.5444 11.1025 73.0339 10.4372 73.3812 9.70919L69.741 10.0544L69.5527 9.02509L73.7515 8.76149C73.923 8.19245 74.0318 7.58157 74.0778 6.92885H70.1301V5.96232H75.264ZM78.8917 16.0669H77.7117V10.2552H75.2389V9.27614H77.7117V4.82006H78.8917V16.0669ZM89.9879 16.0669H88.7829V4.82006H89.9879V16.0669ZM87.3143 6.95396H86.1469V12.182C86.7996 12.1318 87.3729 12.0795 87.8666 12.0251L87.9293 12.9038C86.8498 13.0753 85.7327 13.1904 84.5779 13.249C83.4231 13.3033 82.1469 13.3347 80.7494 13.3431L80.6113 12.3515L82.0925 12.3389V6.95396H80.9126V5.97488H87.3143V6.95396ZM83.2473 12.3138C83.8875 12.3012 84.4649 12.2803 84.9795 12.251V6.95396H83.2473V12.3138ZM102.252 10.2176H100.507V16.0544H99.3143V4.82006H100.507V9.23848H102.252V10.2176ZM93.3519 12.2385C95.0674 12.2385 96.7327 12.0711 98.3478 11.7364L98.4859 12.7406C97.5905 12.9205 96.7013 13.0481 95.8185 13.1234C94.9398 13.1946 94.034 13.2301 93.1009 13.2301H92.172V5.91211H93.3519V12.2385ZM113.134 12.2385H108.54V16.0544H107.373V12.2385H102.842V11.272H113.134V12.2385ZM111.842 9.84099H104.134V5.42257H111.842V9.84099ZM105.302 8.91212H110.649V6.37655H105.302V8.91212Z" fill="#0B0B0B"/>
<path d="M19.9863 15.4641C23.0098 15.4641 25.4608 13.0216 25.4608 10.0085C25.4608 6.99552 23.0098 4.55298 19.9863 4.55298C16.9628 4.55298 14.5117 6.99552 14.5117 10.0085C14.5117 13.0216 16.9628 15.4641 19.9863 15.4641Z" fill="#0B0B0B"/>
<path d="M11.2418 9.5662C11.0151 6.76126 8.66849 4.55298 5.79626 4.55298C2.77972 4.55298 0.330078 6.99787 0.330078 10.0085C0.330078 13.0192 2.77972 15.4641 5.79626 15.4641C8.81279 15.4641 11.0151 13.2558 11.2418 10.4509H5.98522V9.56277H11.2418V9.5662Z" fill="#0B0B0B"/>
<path d="M48.3563 15.4473C51.3695 15.4473 53.8121 13.0047 53.8121 9.9917C53.8121 6.97867 51.3695 4.53613 48.3563 4.53613C45.3431 4.53613 42.9004 6.97867 42.9004 9.9917C42.9004 13.0047 45.3431 15.4473 48.3563 15.4473Z" fill="#0B0B0B"/>
<path d="M38.8917 7.25534C37.9453 5.62999 36.1895 4.53613 34.1766 4.53613C31.1623 4.53613 28.7207 6.98102 28.7207 9.9917C28.7207 13.0024 31.1657 15.4473 34.1766 15.4473C37.1874 15.4473 39.6324 13.0024 39.6324 9.9917H34.18L38.8917 7.25191V7.25534Z" fill="#0B0B0B"/>
</svg>
