<svg width="123" height="20" viewBox="0 0 123 20" fill="none" xmlns="http://www.w3.org/2000/svg">
<path d="M59.1354 15.9769L58.4413 15.2828L62.6573 11.0411L58.4413 6.79941L59.1354 6.10532L63.3514 10.347L67.5416 6.10532L68.2357 6.79941L64.0198 11.0411L68.2357 15.2828L67.5416 15.9769L63.3514 11.7609L59.1354 15.9769ZM75.7858 15.1381C75.1247 15.1381 74.5494 14.9937 74.0599 14.705C73.5745 14.4163 73.2 14.0084 72.9364 13.4812C72.677 12.954 72.5473 12.3389 72.5473 11.636C72.5473 10.9414 72.677 10.3263 72.9364 9.79078C73.2 9.25522 73.5703 8.8389 74.0473 8.54183C74.5243 8.24476 75.0745 8.09622 75.6979 8.09622C76.2461 8.09622 76.7481 8.21547 77.2042 8.45396C77.6603 8.69245 78.0264 9.06902 78.3025 9.58367C78.5829 10.0941 78.723 10.7406 78.723 11.523V12H73.8778C73.8904 12.4226 73.9762 12.7887 74.1352 13.0983C74.2984 13.4038 74.5222 13.636 74.8067 13.795C75.0912 13.954 75.4218 14.0335 75.7984 14.0335C76.1624 14.0335 76.4699 13.9665 76.721 13.8326C76.972 13.6946 77.1582 13.5146 77.2795 13.2929H78.6352C78.5348 13.6611 78.3548 13.9854 78.0954 14.2657C77.836 14.5418 77.5076 14.7573 77.1101 14.9121C76.7168 15.0628 76.2753 15.1381 75.7858 15.1381ZM77.4051 10.9958C77.4051 10.6485 77.3339 10.3389 77.1917 10.0669C77.0536 9.79497 76.8569 9.58367 76.6017 9.43304C76.3465 9.27823 76.0494 9.20082 75.7105 9.20082C75.3632 9.20082 75.0536 9.28241 74.7816 9.44559C74.5138 9.60459 74.3025 9.82216 74.1477 10.0983C73.9929 10.3703 73.905 10.6694 73.8841 10.9958H77.4051ZM82.9908 15.1381C82.3297 15.1381 81.7544 14.9937 81.2649 14.705C80.7795 14.4163 80.4051 14.0084 80.1415 13.4812C79.882 12.954 79.7523 12.3389 79.7523 11.636C79.7523 10.9414 79.882 10.3263 80.1415 9.79078C80.4051 9.25522 80.7754 8.8389 81.2523 8.54183C81.7293 8.24476 82.2795 8.09622 82.903 8.09622C83.4511 8.09622 83.9532 8.21547 84.4093 8.45396C84.8653 8.69245 85.2314 9.06902 85.5076 9.58367C85.7879 10.0941 85.9281 10.7406 85.9281 11.523V12H81.0829C81.0954 12.4226 81.1812 12.7887 81.3402 13.0983C81.5034 13.4038 81.7272 13.636 82.0118 13.795C82.2963 13.954 82.6268 14.0335 83.0034 14.0335C83.3674 14.0335 83.6749 13.9665 83.926 13.8326C84.177 13.6946 84.3632 13.5146 84.4846 13.2929H85.8402C85.7398 13.6611 85.5599 13.9854 85.3005 14.2657C85.0411 14.5418 84.7126 14.7573 84.3151 14.9121C83.9218 15.0628 83.4804 15.1381 82.9908 15.1381ZM84.6101 10.9958C84.6101 10.6485 84.539 10.3389 84.3967 10.0669C84.2586 9.79497 84.062 9.58367 83.8067 9.43304C83.5515 9.27823 83.2544 9.20082 82.9155 9.20082C82.5682 9.20082 82.2586 9.28241 81.9867 9.44559C81.7189 9.60459 81.5076 9.82216 81.3528 10.0983C81.1979 10.3703 81.1101 10.6694 81.0892 10.9958H84.6101ZM86.9448 13.0795C86.9448 12.3724 87.1833 11.8682 87.6603 11.5669C88.1373 11.2657 88.7482 11.0879 89.4929 11.0335C89.7775 11.0125 90.0871 10.9937 90.4218 10.977C90.7607 10.9561 91.0473 10.9414 91.2817 10.933L91.2754 10.3933C91.2754 10.0042 91.1582 9.70501 90.9239 9.4958C90.6896 9.28241 90.3465 9.17572 89.8946 9.17572C89.5139 9.17572 89.2021 9.25522 88.9595 9.41421C88.7168 9.56903 88.5599 9.77823 88.4888 10.0418H87.1582C87.2001 9.66526 87.3402 9.33053 87.5787 9.03764C87.8172 8.74057 88.1394 8.51045 88.5452 8.34727C88.9553 8.1799 89.4218 8.09622 89.9448 8.09622C90.3758 8.09622 90.79 8.16317 91.1875 8.29706C91.5892 8.43095 91.9281 8.67363 92.2042 9.02509C92.4804 9.37656 92.6185 9.85773 92.6185 10.4686V15H91.313V14.0711H91.2628C91.108 14.3724 90.8611 14.6276 90.5222 14.8368C90.1875 15.046 89.7607 15.1506 89.2419 15.1506C88.8067 15.1506 88.4155 15.069 88.0683 14.9059C87.721 14.7427 87.4469 14.5063 87.2461 14.1967C87.0452 13.8828 86.9448 13.5105 86.9448 13.0795ZM88.2503 13.092C88.2503 13.41 88.3674 13.6548 88.6017 13.8264C88.8402 13.9979 89.154 14.0837 89.5432 14.0837C89.8946 14.0837 90.2022 14.0146 90.4657 13.8766C90.7293 13.7343 90.9323 13.546 91.0745 13.3117C91.2168 13.0732 91.2879 12.8159 91.2879 12.5397L91.2817 11.9184L89.6812 12.0251C89.2252 12.0586 88.8716 12.1632 88.6206 12.3389C88.3737 12.5105 88.2503 12.7615 88.2503 13.092ZM100.263 15.1381C99.6143 15.1381 99.0495 14.9895 98.5683 14.6925C98.0871 14.3912 97.7168 13.9749 97.4574 13.4435C97.2022 12.9121 97.0746 12.3054 97.0746 11.6234C97.0746 10.933 97.2043 10.3222 97.4637 9.79078C97.7273 9.25522 98.0976 8.8389 98.5746 8.54183C99.0515 8.24476 99.6059 8.09622 100.238 8.09622C100.752 8.09622 101.215 8.19245 101.625 8.38492C102.035 8.57321 102.365 8.84099 102.616 9.18827C102.867 9.53555 103.016 9.93723 103.062 10.3933H101.757C101.681 10.0544 101.514 9.77405 101.254 9.55229C100.995 9.32635 100.665 9.21338 100.263 9.21338C99.8946 9.21338 99.5704 9.30961 99.29 9.50208C99.0139 9.69455 98.7984 9.9707 98.6436 10.3305C98.493 10.6862 98.4177 11.1046 98.4177 11.5858C98.4177 12.0795 98.493 12.5084 98.6436 12.8724C98.7984 13.2322 99.0139 13.5105 99.29 13.7071C99.5662 13.8996 99.8905 13.9958 100.263 13.9958C100.644 13.9958 100.968 13.8954 101.236 13.6946C101.503 13.4895 101.677 13.205 101.757 12.841H103.062C103.012 13.2845 102.865 13.6799 102.623 14.0272C102.384 14.3745 102.062 14.6464 101.656 14.8431C101.25 15.0397 100.786 15.1381 100.263 15.1381ZM104.016 13.0795C104.016 12.3724 104.254 11.8682 104.731 11.5669C105.208 11.2657 105.819 11.0879 106.564 11.0335C106.849 11.0125 107.158 10.9937 107.493 10.977C107.832 10.9561 108.119 10.9414 108.353 10.933L108.347 10.3933C108.347 10.0042 108.229 9.70501 107.995 9.4958C107.761 9.28241 107.418 9.17572 106.966 9.17572C106.585 9.17572 106.273 9.25522 106.031 9.41421C105.788 9.56903 105.631 9.77823 105.56 10.0418H104.229C104.271 9.66526 104.411 9.33053 104.65 9.03764C104.888 8.74057 105.211 8.51045 105.616 8.34727C106.026 8.1799 106.493 8.09622 107.016 8.09622C107.447 8.09622 107.861 8.16317 108.259 8.29706C108.66 8.43095 108.999 8.67363 109.275 9.02509C109.552 9.37656 109.69 9.85773 109.69 10.4686V15H108.384V14.0711H108.334C108.179 14.3724 107.932 14.6276 107.593 14.8368C107.259 15.046 106.832 15.1506 106.313 15.1506C105.878 15.1506 105.487 15.069 105.139 14.9059C104.792 14.7427 104.518 14.5063 104.317 14.1967C104.116 13.8828 104.016 13.5105 104.016 13.0795ZM105.321 13.092C105.321 13.41 105.439 13.6548 105.673 13.8264C105.911 13.9979 106.225 14.0837 106.614 14.0837C106.966 14.0837 107.273 14.0146 107.537 13.8766C107.801 13.7343 108.003 13.546 108.146 13.3117C108.288 13.0732 108.359 12.8159 108.359 12.5397L108.353 11.9184L106.752 12.0251C106.296 12.0586 105.943 12.1632 105.692 12.3389C105.445 12.5105 105.321 12.7615 105.321 13.092ZM114.56 9.25103H113.091V15H111.748V9.25103H110.694V8.18409H111.748V7.39329C111.748 6.79078 111.928 6.32216 112.288 5.98743C112.652 5.6527 113.15 5.48534 113.782 5.48534C114.087 5.48534 114.393 5.51462 114.698 5.5732V6.69036C114.476 6.65689 114.288 6.64015 114.133 6.64015C113.773 6.64015 113.51 6.71756 113.342 6.87237C113.175 7.023 113.091 7.26358 113.091 7.59413V8.18409H114.56V9.25103ZM118.439 15.1381C117.778 15.1381 117.202 14.9937 116.713 14.705C116.227 14.4163 115.853 14.0084 115.589 13.4812C115.33 12.954 115.2 12.3389 115.2 11.636C115.2 10.9414 115.33 10.3263 115.589 9.79078C115.853 9.25522 116.223 8.8389 116.7 8.54183C117.177 8.24476 117.727 8.09622 118.351 8.09622C118.899 8.09622 119.401 8.21547 119.857 8.45396C120.313 8.69245 120.679 9.06902 120.955 9.58367C121.236 10.0941 121.376 10.7406 121.376 11.523V12H116.531C116.543 12.4226 116.629 12.7887 116.788 13.0983C116.951 13.4038 117.175 13.636 117.46 13.795C117.744 13.954 118.075 14.0335 118.451 14.0335C118.815 14.0335 119.123 13.9665 119.374 13.8326C119.625 13.6946 119.811 13.5146 119.932 13.2929H121.288C121.188 13.6611 121.008 13.9854 120.748 14.2657C120.489 14.5418 120.16 14.7573 119.763 14.9121C119.37 15.0628 118.928 15.1381 118.439 15.1381ZM120.058 10.9958C120.058 10.6485 119.987 10.3389 119.844 10.0669C119.706 9.79497 119.51 9.58367 119.255 9.43304C118.999 9.27823 118.702 9.20082 118.363 9.20082C118.016 9.20082 117.706 9.28241 117.434 9.44559C117.167 9.60459 116.955 9.82216 116.801 10.0983C116.646 10.3703 116.558 10.6694 116.537 10.9958H120.058Z" fill="#0B0B0B"/>
<path d="M19.6564 15.4639C22.68 15.4639 25.131 13.0213 25.131 10.0083C25.131 6.99527 22.68 4.55273 19.6564 4.55273C16.6329 4.55273 14.1819 6.99527 14.1819 10.0083C14.1819 13.0213 16.6329 15.4639 19.6564 15.4639Z" fill="#0B0B0B"/>
<path d="M10.912 9.56596C10.6852 6.76102 8.33866 4.55273 5.46642 4.55273C2.44989 4.55273 0.000244141 6.99762 0.000244141 10.0083C0.000244141 13.019 2.44989 15.4639 5.46642 15.4639C8.48296 15.4639 10.6852 13.2556 10.912 10.4506H5.65539V9.56253H10.912V9.56596Z" fill="#0B0B0B"/>
<path d="M48.0264 15.447C51.0396 15.447 53.4823 13.0045 53.4823 9.99145C53.4823 6.97843 51.0396 4.53589 48.0264 4.53589C45.0132 4.53589 42.5706 6.97843 42.5706 9.99145C42.5706 13.0045 45.0132 15.447 48.0264 15.447Z" fill="#0B0B0B"/>
<path d="M38.5619 7.2551C37.6154 5.62974 35.8597 4.53589 33.8467 4.53589C30.8325 4.53589 28.3909 6.98078 28.3909 9.99145C28.3909 13.0021 30.8359 15.447 33.8467 15.447C36.8576 15.447 39.3026 13.0021 39.3026 9.99145H33.8502L38.5619 7.25167V7.2551Z" fill="#0B0B0B"/>
</svg>
