<svg width="48" height="48" viewBox="0 0 48 48" fill="none" xmlns="http://www.w3.org/2000/svg">
<rect width="48" height="48" rx="24" fill="#EDEDED"/>
<path d="M31.0497 22.3594C34.0371 22.3594 36.4588 19.9459 36.4588 16.9688C36.4588 13.9916 34.0371 11.5781 31.0497 11.5781C28.0624 11.5781 25.6406 13.9916 25.6406 16.9688C25.6406 19.9459 28.0624 22.3594 31.0497 22.3594Z" fill="white"/>
<path d="M22.3594 16.5317C22.1353 13.7601 19.8168 11.5781 16.9789 11.5781C13.9985 11.5781 11.5781 13.9939 11.5781 16.9688C11.5781 19.9436 13.9985 22.3594 16.9789 22.3594C19.9594 22.3594 22.1353 20.1774 22.3594 17.4058H17.1656V16.5283H22.3594V16.5317Z" fill="white"/>
<path d="M31.0313 36.4219C34.0084 36.4219 36.4219 34.0084 36.4219 31.0312C36.4219 28.0541 34.0084 25.6406 31.0313 25.6406C28.0541 25.6406 25.6406 28.0541 25.6406 31.0312C25.6406 34.0084 28.0541 36.4219 31.0313 36.4219Z" fill="white"/>
<path d="M21.6275 28.3275C20.6924 26.7215 18.9576 25.6406 16.9688 25.6406C13.9905 25.6406 11.5781 28.0564 11.5781 31.0312C11.5781 34.0061 13.9939 36.4219 16.9688 36.4219C19.9436 36.4219 22.3594 34.0061 22.3594 31.0312H16.9721L21.6275 28.3241V28.3275Z" fill="white"/>
</svg>
