<svg width="358" height="150" viewBox="0 0 358 150" fill="none" xmlns="http://www.w3.org/2000/svg">
<g clip-path="url(#clip0_1821_10807)">
<mask id="path-1-inside-1_1821_10807" fill="white">
<path d="M0 20C0 8.9543 8.9543 0 20 0H338C349.046 0 358 8.95431 358 20V130C358 141.046 349.046 150 338 150H20C8.95431 150 0 141.046 0 130V20Z"/>
</mask>
<path d="M0 20C0 8.9543 8.9543 0 20 0H338C349.046 0 358 8.95431 358 20V130C358 141.046 349.046 150 338 150H20C8.95431 150 0 141.046 0 130V20Z" fill="#EDEDED"/>
<path d="M126.007 115C148.62 115 166.951 96.8879 166.951 74.5454C166.951 52.203 148.62 34.0908 126.007 34.0908C103.395 34.0908 85.0635 52.203 85.0635 74.5454C85.0635 96.8879 103.395 115 126.007 115Z" fill="white" fill-opacity="0.5"/>
<path d="M60.6085 71.2653C58.9126 50.4659 41.3627 34.0908 19.8813 34.0908C-2.6792 34.0908 -21 52.2204 -21 74.5454C-21 96.8705 -2.6792 115 19.8813 115C42.4419 115 58.9126 98.625 60.6085 77.8255H21.2946V71.2399H60.6085V71.2653Z" fill="white" fill-opacity="0.5"/>
<path d="M338.196 114.909C360.731 114.909 379 96.7971 379 74.4546C379 52.1121 360.731 34 338.196 34C315.66 34 297.392 52.1121 297.392 74.4546C297.392 96.7971 315.66 114.909 338.196 114.909Z" fill="white" fill-opacity="0.5"/>
<path d="M267.397 54.1637C260.318 42.1113 247.187 34 232.132 34C209.589 34 191.328 52.1296 191.328 74.4546C191.328 96.7797 209.614 114.909 232.132 114.909C254.65 114.909 272.937 96.7797 272.937 74.4546H232.158L267.397 54.1383V54.1637Z" fill="white" fill-opacity="0.5"/>
</g>
<path d="M0 0H358H0ZM358 130C358 141.322 348.822 150.5 337.5 150.5H20.5C9.17816 150.5 0 141.322 0 130C0 140.77 8.9543 149.5 20 149.5H338C349.046 149.5 358 140.77 358 130ZM0 150V0V150ZM358 0V150V0Z" fill="#EDEDED" mask="url(#path-1-inside-1_1821_10807)"/>
<defs>
<clipPath id="clip0_1821_10807">
<path d="M0 20C0 8.9543 8.9543 0 20 0H338C349.046 0 358 8.95431 358 20V130C358 141.046 349.046 150 338 150H20C8.95431 150 0 141.046 0 130V20Z" fill="white"/>
</clipPath>
</defs>
</svg>
