<svg width="119" height="24" viewBox="0 0 119 24" fill="none" xmlns="http://www.w3.org/2000/svg">
<path d="M43.4536 24C50.1377 24 55.5562 18.6334 55.5562 12.0134C55.5562 5.39342 50.1377 0.0268555 43.4536 0.0268555C36.7696 0.0268555 31.3511 5.39342 31.3511 12.0134C31.3511 18.6334 36.7696 24 43.4536 24Z" fill="black"/>
<path d="M24.1225 11.0415C23.6212 4.87873 18.4337 0.0268555 12.084 0.0268555C5.41541 0.0268555 0 5.39858 0 12.0134C0 18.6282 5.41541 24 12.084 24C18.7527 24 23.6212 19.1481 24.1225 12.9853H12.5018V11.034H24.1225V11.0415Z" fill="black"/>
<path d="M106.174 23.9731C112.835 23.9731 118.235 18.6065 118.235 11.9866C118.235 5.36656 112.835 0 106.174 0C99.5128 0 94.1128 5.36656 94.1128 11.9866C94.1128 18.6065 99.5128 23.9731 106.174 23.9731Z" fill="black"/>
<path d="M85.2468 5.97444C83.1544 2.40334 79.273 0 74.823 0C68.1593 0 62.7617 5.37172 62.7617 11.9866C62.7617 18.6014 68.1669 23.9731 74.823 23.9731C81.479 23.9731 86.8842 18.6014 86.8842 11.9866H74.8306L85.2468 5.96691V5.97444Z" fill="black"/>
</svg>
