<svg width="512" height="512" viewBox="0 0 512 512" fill="none" xmlns="http://www.w3.org/2000/svg">
<rect width="512" height="512" fill="black"/>
<path d="M331.197 238.5C363.062 238.5 388.894 212.756 388.894 181C388.894 149.244 363.062 123.5 331.197 123.5C299.332 123.5 273.5 149.244 273.5 181C273.5 212.756 299.332 238.5 331.197 238.5Z" fill="white"/>
<path d="M238.5 176.338C236.11 146.775 211.379 123.5 181.109 123.5C149.317 123.5 123.5 149.268 123.5 181C123.5 212.732 149.317 238.5 181.109 238.5C212.9 238.5 236.11 215.225 238.5 185.662H183.1V176.302H238.5V176.338Z" fill="white"/>
<path d="M331 388.5C362.756 388.5 388.5 362.756 388.5 331C388.5 299.244 362.756 273.5 331 273.5C299.244 273.5 273.5 299.244 273.5 331C273.5 362.756 299.244 388.5 331 388.5Z" fill="white"/>
<path d="M230.694 302.16C220.719 285.029 202.215 273.5 181 273.5C149.232 273.5 123.5 299.268 123.5 331C123.5 362.732 149.268 388.5 181 388.5C212.732 388.5 238.5 362.732 238.5 331H181.036L230.694 302.124V302.16Z" fill="white"/>
</svg>
