<svg fill="none" height="652" viewBox="0 0 390 652" width="390" xmlns="http://www.w3.org/2000/svg">
    <rect fill="white" height="652" width="390" />
    <path
        d="M265.261 343.96C275.253 343.96 283.353 335.91 283.353 325.98C283.353 316.05 275.253 308 265.261 308C255.269 308 247.169 316.05 247.169 325.98C247.169 335.91 255.269 343.96 265.261 343.96Z"
        fill="black" />
    <path
        d="M233.87 316.962C230.732 311.605 224.909 308 218.234 308C208.239 308 200.143 316.058 200.143 325.98C200.143 335.902 208.25 343.96 218.234 343.96C228.219 343.96 236.326 335.902 236.326 325.98H218.246L233.87 316.95V316.962Z"
        fill="black" />
    <path
        d="M142.184 324.522C141.432 315.278 133.651 308 124.126 308C114.123 308 106 316.058 106 325.98C106 335.902 114.123 343.96 124.126 343.96C134.129 343.96 141.432 336.682 142.184 327.438H124.753V324.511H142.184V324.522Z"
        fill="black" />
    <path
        d="M171.18 307.96C181.207 307.96 189.334 299.91 189.334 289.98C189.334 280.05 181.207 272 171.18 272C161.154 272 153.027 280.05 153.027 289.98C153.027 299.91 161.154 307.96 171.18 307.96Z"
        fill="black" />
</svg>
