<svg fill="none" height="652" viewBox="0 0 390 652" width="390" xmlns="http://www.w3.org/2000/svg">
    <rect fill="white" height="652" width="390" />
    <path
        d="M171.18 344C181.207 344 189.334 335.95 189.334 326.02C189.334 316.09 181.207 308.041 171.18 308.041C161.154 308.041 153.027 316.09 153.027 326.02C153.027 335.95 161.154 344 171.18 344Z"
        fill="black" />
    <path
        d="M265.261 343.96C275.253 343.96 283.353 335.91 283.353 325.98C283.353 316.05 275.253 308 265.261 308C255.269 308 247.169 316.05 247.169 325.98C247.169 335.91 255.269 343.96 265.261 343.96Z"
        fill="black" />
    <path
        d="M233.87 316.962C230.732 311.605 224.909 308 218.234 308C208.239 308 200.143 316.058 200.143 325.98C200.143 335.902 208.25 343.96 218.234 343.96C228.219 343.96 236.326 335.902 236.326 325.98H218.246L233.87 316.95V316.962Z"
        fill="black" />
    <path
        d="M142.184 288.522C141.432 279.278 133.651 272 124.126 272C114.123 272 106 280.058 106 289.98C106 299.902 114.123 307.96 124.126 307.96C134.129 307.96 141.432 300.682 142.184 291.438H124.753V288.511H142.184V288.522Z"
        fill="black" />
</svg>
