<svg fill="none" height="652" viewBox="0 0 390 652" width="390" xmlns="http://www.w3.org/2000/svg">
    <rect fill="white" height="652" width="390" />
    <path
        d="M142.184 324.522C141.432 315.278 133.651 308 124.126 308C114.123 308 106 316.058 106 325.98C106 335.902 114.123 343.96 124.126 343.96C134.129 343.96 141.432 336.682 142.184 327.438H124.753V324.511H142.184V324.522Z"
        fill="black" />
    <path
        d="M171.18 343.96C181.207 343.96 189.334 335.91 189.334 325.98C189.334 316.05 181.207 308 171.18 308C161.154 308 153.027 316.05 153.027 325.98C153.027 335.91 161.154 343.96 171.18 343.96Z"
        fill="black" />
    <path
        d="M233.87 316.962C230.732 311.605 224.909 308 218.234 308C208.239 308 200.143 316.058 200.143 325.98C200.143 335.902 208.25 343.96 218.234 343.96C228.219 343.96 236.326 335.902 236.326 325.98H218.246L233.87 316.95V316.962Z"
        fill="black" />
    <path
        d="M265.261 307.96C275.253 307.96 283.353 299.91 283.353 289.98C283.353 280.05 275.253 272 265.261 272C255.269 272 247.169 280.05 247.169 289.98C247.169 299.91 255.269 307.96 265.261 307.96Z"
        fill="black" />
</svg>
