<svg width="26" height="27" viewBox="0 0 26 27" fill="none" xmlns="http://www.w3.org/2000/svg">
<g clip-path="url(#clip0_5693_1801)">
<path d="M11.373 4.05713C15.454 4.05715 18.918 6.80288 19.7383 10.5356C21.7933 11.8325 23.1776 14.0657 23.1777 16.6333C23.1777 18.1217 22.7101 19.5019 21.917 20.6519L23.0225 22.396C23.2175 22.7038 23.2301 23.0942 23.0547 23.4136C22.8791 23.7329 22.5431 23.9308 22.1787 23.9312L15.7637 23.9351C15.7052 23.9375 15.615 23.9429 15.5322 23.9429C12.7563 23.9429 10.3052 22.5252 8.96289 20.3784L3.82227 20.3765C3.45771 20.3763 3.12194 20.1774 2.94629 19.8579C2.77071 19.5386 2.78258 19.1492 2.97754 18.8413L4.28027 16.7837C3.36219 15.4848 2.82233 13.9152 2.82227 12.2231C2.8223 7.66528 6.69983 4.05717 11.373 4.05713ZM19.8574 13.228C19.3426 17.2481 15.787 20.3063 11.5352 20.3823C12.5525 21.3406 13.9614 21.9429 15.5322 21.9429C15.5845 21.9429 15.6267 21.9396 15.7246 21.936H15.7598L20.3604 21.9321L19.9121 21.2251C19.9106 21.2231 19.9088 21.2212 19.9072 21.2192C19.6142 20.8447 19.6258 20.3153 19.9346 19.9536L20.0547 19.811L20.0566 19.8091L20.1855 19.6401C20.8142 18.7817 21.1777 17.7469 21.1777 16.6333C21.1776 15.345 20.6852 14.1553 19.8574 13.228ZM11.373 6.05713C7.70465 6.05717 4.8223 8.86703 4.82227 12.2231C4.82233 13.5183 5.24527 14.7216 5.97559 15.7173L6.12598 15.9136L6.12793 15.9155L6.26172 16.0737L6.31641 16.1431C6.575 16.4996 6.57096 16.9886 6.29688 17.3423C6.29449 17.3454 6.29149 17.348 6.28906 17.3511L5.63867 18.3765L9.54492 18.3794L9.56543 18.3804H11.1445L11.373 18.3872C15.0414 18.3871 17.9238 15.5773 17.9238 12.2212C17.9238 11.9923 17.91 11.7657 17.8838 11.5415L17.8535 11.3179L17.8047 11.0454C17.2273 8.23799 14.599 6.05715 11.373 6.05713ZM9.32129 9.98291C9.93809 9.98294 10.4383 10.4833 10.4385 11.1001C10.4385 11.717 9.93821 12.2173 9.32129 12.2173C8.70435 12.2173 8.2041 11.717 8.2041 11.1001C8.20429 10.4833 8.70446 9.98291 9.32129 9.98291ZM13.3428 9.98291C13.9596 9.98294 14.4598 10.4833 14.46 11.1001C14.46 11.717 13.9597 12.2173 13.3428 12.2173C12.7258 12.2173 12.2256 11.717 12.2256 11.1001C12.2258 10.4833 12.7259 9.98291 13.3428 9.98291Z" fill="#626262"/>
</g>
<defs>
<clipPath id="clip0_5693_1801">
<rect width="26" height="26" fill="white" transform="translate(0 0.6875)"/>
</clipPath>
</defs>
</svg>
