<svg width="390" height="160" viewBox="0 0 390 160" fill="none" xmlns="http://www.w3.org/2000/svg">
<g clip-path="url(#clip0_1821_10806)">
<mask id="path-1-inside-1_1821_10806" fill="white">
<path d="M16 25C16 13.9543 24.9543 5 36 5H354C365.046 5 374 13.9543 374 25V135C374 146.046 365.046 155 354 155H36C24.9543 155 16 146.046 16 135V25Z"/>
</mask>
<path d="M16 25C16 13.9543 24.9543 5 36 5H354C365.046 5 374 13.9543 374 25V135C374 146.046 365.046 155 354 155H36C24.9543 155 16 146.046 16 135V25Z" fill="#EDEDED"/>
<path d="M142.007 120C164.62 120 182.951 101.888 182.951 79.5454C182.951 57.203 164.62 39.0908 142.007 39.0908C119.395 39.0908 101.063 57.203 101.063 79.5454C101.063 101.888 119.395 120 142.007 120Z" fill="white" fill-opacity="0.5"/>
<path d="M76.6085 76.2653C74.9126 55.4659 57.3627 39.0908 35.8813 39.0908C13.3208 39.0908 -5 57.2204 -5 79.5454C-5 101.87 13.3208 120 35.8813 120C58.4419 120 74.9126 103.625 76.6085 82.8255H37.2946V76.2399H76.6085V76.2653Z" fill="white" fill-opacity="0.5"/>
<path d="M354.196 119.909C376.731 119.909 395 101.797 395 79.4546C395 57.1121 376.731 39 354.196 39C331.66 39 313.392 57.1121 313.392 79.4546C313.392 101.797 331.66 119.909 354.196 119.909Z" fill="white" fill-opacity="0.5"/>
<path d="M283.397 59.1637C276.318 47.1113 263.187 39 248.132 39C225.589 39 207.328 57.1296 207.328 79.4546C207.328 101.78 225.614 119.909 248.132 119.909C270.65 119.909 288.937 101.78 288.937 79.4546H248.158L283.397 59.1383V59.1637Z" fill="white" fill-opacity="0.5"/>
</g>
<path d="M16 5H374H16ZM374 135C374 146.322 364.822 155.5 353.5 155.5H36.5C25.1782 155.5 16 146.322 16 135C16 145.77 24.9543 154.5 36 154.5H354C365.046 154.5 374 145.77 374 135ZM16 155V5V155ZM374 5V155V5Z" fill="#EDEDED" mask="url(#path-1-inside-1_1821_10806)"/>
<defs>
<clipPath id="clip0_1821_10806">
<path d="M16 25C16 13.9543 24.9543 5 36 5H354C365.046 5 374 13.9543 374 25V135C374 146.046 365.046 155 354 155H36C24.9543 155 16 146.046 16 135V25Z" fill="white"/>
</clipPath>
</defs>
</svg>
